<svg width="40" height="41" viewBox="0 0 40 41" fill="none" xmlns="http://www.w3.org/2000/svg">
<path fill-rule="evenodd" clip-rule="evenodd" d="M9.76378 4.2265C8.03739 4.2265 6.3817 4.91231 5.16095 6.13306C3.9402 7.35381 3.25439 9.00949 3.25439 10.7359V30.2641C3.25439 31.9905 3.9402 33.6461 5.16095 34.8669C6.3817 36.0876 8.03739 36.7735 9.76378 36.7735H29.292C31.0184 36.7735 32.674 36.0876 33.8948 34.8669C35.1155 33.6461 35.8013 31.9905 35.8013 30.2641V10.7359C35.8013 9.00949 35.1155 7.35381 33.8948 6.13306C32.674 4.91231 31.0184 4.2265 29.292 4.2265H9.76378ZM6.50909 10.7359C6.50909 9.87269 6.85199 9.04485 7.46237 8.43447C8.07274 7.8241 8.90059 7.4812 9.76378 7.4812H29.292C30.1552 7.4812 30.983 7.8241 31.5934 8.43447C32.2037 9.04485 32.5467 9.87269 32.5467 10.7359V30.2641C32.5467 31.1273 32.2037 31.9551 31.5934 32.5655C30.983 33.1759 30.1552 33.5188 29.292 33.5188H9.76378C8.90059 33.5188 8.07274 33.1759 7.46237 32.5655C6.85199 31.9551 6.50909 31.1273 6.50909 30.2641V10.7359ZM14.6458 18.8726C14.6458 18.441 14.4744 18.0271 14.1692 17.7219C13.864 17.4167 13.4501 17.2453 13.0185 17.2453C12.5869 17.2453 12.173 17.4167 11.8678 17.7219C11.5626 18.0271 11.3911 18.441 11.3911 18.8726V28.6367C11.3911 29.0683 11.5626 29.4822 11.8678 29.7874C12.173 30.0926 12.5869 30.2641 13.0185 30.2641C13.4501 30.2641 13.864 30.0926 14.1692 29.7874C14.4744 29.4822 14.6458 29.0683 14.6458 28.6367V18.8726ZM15.4595 13.1769C15.4595 13.8243 15.2023 14.4452 14.7445 14.903C14.2868 15.3608 13.6659 15.6179 13.0185 15.6179C12.3711 15.6179 11.7502 15.3608 11.2924 14.903C10.8346 14.4452 10.5775 13.8243 10.5775 13.1769C10.5775 12.5295 10.8346 11.9086 11.2924 11.4509C11.7502 10.9931 12.3711 10.7359 13.0185 10.7359C13.6659 10.7359 14.2868 10.9931 14.7445 11.4509C15.2023 11.9086 15.4595 12.5295 15.4595 13.1769ZM19.5279 17.2453C20.0812 17.2453 20.5694 17.5219 20.8623 17.9418C21.701 17.4847 22.641 17.2452 23.5962 17.2453C27.1113 17.2453 29.292 20.3796 29.292 23.0565V28.6367C29.292 29.0683 29.1205 29.4822 28.8153 29.7874C28.5101 30.0926 28.0962 30.2641 27.6646 30.2641C27.233 30.2641 26.8191 30.0926 26.5139 29.7874C26.2087 29.4822 26.0373 29.0683 26.0373 28.6367V23.0549C26.0373 21.8051 24.9632 20.4984 23.5962 20.4984C22.7435 20.4984 21.8013 20.9621 21.1552 22.0655V28.6367C21.1552 29.0683 20.9838 29.4822 20.6786 29.7874C20.3734 30.0926 19.9595 30.2641 19.5279 30.2641C19.0963 30.2641 18.6823 30.0926 18.3772 29.7874C18.072 29.4822 17.9005 29.0683 17.9005 28.6367V18.8726C17.9005 18.441 18.072 18.0271 18.3772 17.7219C18.6823 17.4167 19.0963 17.2453 19.5279 17.2453Z" fill="#45392F"/>
</svg>
