<svg width="40" height="41" viewBox="0 0 40 41" fill="none" xmlns="http://www.w3.org/2000/svg">
<path fill-rule="evenodd" clip-rule="evenodd" d="M34.676 10.6676C34.6906 11.6554 34.5669 12.8938 34.4579 13.7969C34.4233 14.0953 34.369 14.3911 34.2952 14.6822C35.6882 17.2616 36.3033 20.3649 36.3033 23.7547C36.3033 27.771 34.3716 31.0794 31.3627 33.3349C28.3814 35.5692 24.3586 36.7735 20.0298 36.7735C15.7011 36.7735 11.6783 35.5692 8.69697 33.3349C5.68801 31.0794 3.75635 27.771 3.75635 23.7547C3.75635 20.3649 4.36986 17.2616 5.76612 14.6822C5.69233 14.3911 5.63796 14.0953 5.60339 13.7969C5.4911 12.8938 5.36742 11.6554 5.3837 10.6676C5.39997 9.55608 5.54643 8.4446 5.70754 7.34126C5.7824 6.83028 5.89956 6.35021 6.45449 6.04752C7.02081 5.73833 7.61642 5.85224 8.20389 6.01986C10.186 6.58129 12.0444 7.37056 13.7922 8.31442C15.636 7.76275 17.7157 7.48121 20.0298 7.48121C22.3439 7.48121 24.4237 7.76275 26.2658 8.31604C28.0381 7.34713 29.9123 6.57758 31.8541 6.02148C32.4416 5.85387 33.0388 5.73833 33.6035 6.04752C34.1568 6.35021 34.2756 6.83028 34.3521 7.34126C34.5116 8.4446 34.6597 9.55608 34.676 10.6676ZM33.0486 23.7547C33.0486 21.0093 32.4172 17.2453 28.9802 17.2453C27.431 17.2453 25.9648 17.6521 24.5001 18.059C23.0372 18.4658 21.5758 18.8726 20.0298 18.8726C18.4838 18.8726 17.0225 18.4658 15.5595 18.059C14.0949 17.6521 12.6303 17.2453 11.0794 17.2453C7.65222 17.2453 7.01104 21.0207 7.01104 23.7547C7.01104 26.6253 8.35686 29.0126 10.6498 30.7311C12.9671 32.4708 16.2707 33.5188 20.0298 33.5188C23.789 33.5188 27.0909 32.4691 29.4099 30.7311C31.7028 29.011 33.0486 26.6253 33.0486 23.7547ZM16.7751 24.5684C16.7751 26.8141 15.6816 28.6367 14.3341 28.6367C12.9867 28.6367 11.8931 26.8141 11.8931 24.5684C11.8931 22.3226 12.9867 20.5 14.3341 20.5C15.6816 20.5 16.7751 22.3226 16.7751 24.5684ZM25.7255 28.6367C27.073 28.6367 28.1666 26.8141 28.1666 24.5684C28.1666 22.3226 27.073 20.5 25.7255 20.5C24.3781 20.5 23.2845 22.3226 23.2845 24.5684C23.2845 26.8141 24.3781 28.6367 25.7255 28.6367Z" fill="#45392F"/>
</svg>
