<svg width="39" height="40" viewBox="0 0 39 40" fill="none" xmlns="http://www.w3.org/2000/svg">
<path fill-rule="evenodd" clip-rule="evenodd" d="M4.07129 8.33337C4.07129 7.00729 4.57173 5.73552 5.46253 4.79784C6.35333 3.86016 7.56151 3.33337 8.82129 3.33337H30.988C32.2477 3.33337 33.4559 3.86016 34.3467 4.79784C35.2375 5.73552 35.738 7.00729 35.738 8.33337V31.6667C35.738 32.9928 35.2375 34.2646 34.3467 35.2022C33.4559 36.1399 32.2477 36.6667 30.988 36.6667H8.82129C7.56151 36.6667 6.35333 36.1399 5.46253 35.2022C4.57173 34.2646 4.07129 32.9928 4.07129 31.6667V8.33337ZM8.82129 6.66671C8.40136 6.66671 7.99864 6.8423 7.7017 7.15486C7.40477 7.46742 7.23796 7.89135 7.23796 8.33337V16.6667H32.5713V8.33337C32.5713 7.89135 32.4045 7.46742 32.1075 7.15486C31.8106 6.8423 31.4079 6.66671 30.988 6.66671H8.82129ZM7.23796 20V31.6667C7.23796 32.1087 7.40477 32.5327 7.7017 32.8452C7.99864 33.1578 8.40136 33.3334 8.82129 33.3334H30.988C31.4079 33.3334 31.8106 33.1578 32.1075 32.8452C32.4045 32.5327 32.5713 32.1087 32.5713 31.6667V20H7.23796ZM23.0713 21.6667C23.4912 21.6668 23.8938 21.8425 24.1907 22.155L30.524 28.8217C30.8125 29.136 30.972 29.557 30.9684 29.994C30.9648 30.431 30.7983 30.8491 30.5048 31.1581C30.2112 31.4671 29.8141 31.6424 29.3989 31.6462C28.9838 31.65 28.5838 31.482 28.2852 31.1784L23.0713 25.69L19.4407 29.5117L17.8574 31.1784C17.5588 31.482 17.1588 31.65 16.7437 31.6462C16.3285 31.6424 15.9314 31.4671 15.6378 31.1581C15.3443 30.8491 15.1777 30.431 15.1741 29.994C15.1705 29.557 15.3301 29.136 15.6185 28.8217L16.0825 28.3334L15.1546 27.3567L11.524 31.1784C11.2254 31.482 10.8255 31.65 10.4103 31.6462C9.99518 31.6424 9.59806 31.4671 9.30449 31.1581C9.01093 30.8491 8.84441 30.431 8.8408 29.994C8.8372 29.557 8.99679 29.136 9.28521 28.8217L14.0352 23.8217C14.3321 23.5093 14.7348 23.3337 15.1546 23.3337C15.5745 23.3337 15.9771 23.5093 16.274 23.8217L18.3213 25.9767L21.9519 22.155C22.2487 21.8425 22.6514 21.6668 23.0713 21.6667ZM18.3213 11.6667C18.3213 11.2247 18.4881 10.8008 18.785 10.4882C19.082 10.1756 19.4847 10 19.9046 10H27.8213C28.2412 10 28.6439 10.1756 28.9409 10.4882C29.2378 10.8008 29.4046 11.2247 29.4046 11.6667C29.4046 12.1087 29.2378 12.5327 28.9409 12.8452C28.6439 13.1578 28.2412 13.3334 27.8213 13.3334H19.9046C19.4847 13.3334 19.082 13.1578 18.785 12.8452C18.4881 12.5327 18.3213 12.1087 18.3213 11.6667ZM11.988 14.5834C12.7228 14.5834 13.4276 14.2761 13.9472 13.7291C14.4669 13.1821 14.7588 12.4403 14.7588 11.6667C14.7588 10.8932 14.4669 10.1513 13.9472 9.60431C13.4276 9.05733 12.7228 8.75004 11.988 8.75004C11.2531 8.75004 10.5483 9.05733 10.0287 9.60431C9.50905 10.1513 9.21712 10.8932 9.21712 11.6667C9.21712 12.4403 9.50905 13.1821 10.0287 13.7291C10.5483 14.2761 11.2531 14.5834 11.988 14.5834V14.5834Z" fill="#A57E59"/>
</svg>
